<mxfile host="app.diagrams.net" modified="2022-08-15T04:48:49.953Z" agent="5.0 (Macintosh; Intel Mac OS X 10_15_7) AppleWebKit/605.1.15 (KHTML, like Gecko) Version/15.5 Safari/605.1.15" etag="BOmFejvzrAgJzpzuQTln" version="20.2.3" type="github">
  <diagram id="JZZYmNQeY7nKWERXqgVb" name="Page-1">
    <mxGraphModel dx="976" dy="745" grid="0" gridSize="10" guides="1" tooltips="1" connect="1" arrows="1" fold="1" page="1" pageScale="1" pageWidth="850" pageHeight="1100" math="0" shadow="0">
      <root>
        <mxCell id="0" />
        <mxCell id="1" parent="0" />
        <mxCell id="i5N2LThPPHAmajQiNkWL-1" value="" style="rounded=1;whiteSpace=wrap;html=1;" vertex="1" parent="1">
          <mxGeometry x="166" y="107" width="191" height="251" as="geometry" />
        </mxCell>
        <mxCell id="i5N2LThPPHAmajQiNkWL-2" value="Node 1" style="text;html=1;strokeColor=none;fillColor=none;align=center;verticalAlign=middle;whiteSpace=wrap;rounded=0;" vertex="1" parent="1">
          <mxGeometry x="178" y="120" width="60" height="30" as="geometry" />
        </mxCell>
        <mxCell id="i5N2LThPPHAmajQiNkWL-5" value="" style="rounded=1;whiteSpace=wrap;html=1;" vertex="1" parent="1">
          <mxGeometry x="174" y="177" width="168" height="69" as="geometry" />
        </mxCell>
        <mxCell id="i5N2LThPPHAmajQiNkWL-7" value="Envoy" style="rounded=1;whiteSpace=wrap;html=1;" vertex="1" parent="1">
          <mxGeometry x="194" y="191.5" width="57" height="40" as="geometry" />
        </mxCell>
        <mxCell id="i5N2LThPPHAmajQiNkWL-14" value="日志采集缓冲区" style="strokeWidth=2;html=1;shape=mxgraph.flowchart.sequential_data;whiteSpace=wrap;" vertex="1" parent="1">
          <mxGeometry x="488" y="330" width="100" height="100" as="geometry" />
        </mxCell>
        <mxCell id="i5N2LThPPHAmajQiNkWL-18" value="" style="shape=image;verticalLabelPosition=bottom;labelBackgroundColor=default;verticalAlign=top;aspect=fixed;imageAspect=0;image=https://raw.githubusercontent.com/stong1994/images/master/picgo/202208151236876.png;" vertex="1" parent="1">
          <mxGeometry x="153" y="716" width="442" height="520" as="geometry" />
        </mxCell>
        <mxCell id="i5N2LThPPHAmajQiNkWL-36" style="edgeStyle=orthogonalEdgeStyle;curved=1;rounded=0;orthogonalLoop=1;jettySize=auto;html=1;exitX=1;exitY=0.5;exitDx=0;exitDy=0;entryX=0;entryY=0.5;entryDx=0;entryDy=0;entryPerimeter=0;" edge="1" parent="1" source="i5N2LThPPHAmajQiNkWL-19" target="i5N2LThPPHAmajQiNkWL-14">
          <mxGeometry relative="1" as="geometry" />
        </mxCell>
        <mxCell id="i5N2LThPPHAmajQiNkWL-19" value="Filebeat" style="rounded=1;whiteSpace=wrap;html=1;" vertex="1" parent="1">
          <mxGeometry x="270" y="191.5" width="57" height="40" as="geometry" />
        </mxCell>
        <mxCell id="i5N2LThPPHAmajQiNkWL-20" value="Pod" style="text;html=1;strokeColor=none;fillColor=none;align=center;verticalAlign=middle;whiteSpace=wrap;rounded=0;" vertex="1" parent="1">
          <mxGeometry x="233" y="150" width="60" height="30" as="geometry" />
        </mxCell>
        <mxCell id="i5N2LThPPHAmajQiNkWL-21" value="" style="rounded=1;whiteSpace=wrap;html=1;" vertex="1" parent="1">
          <mxGeometry x="174" y="269" width="168" height="69" as="geometry" />
        </mxCell>
        <mxCell id="i5N2LThPPHAmajQiNkWL-22" value="Envoy" style="rounded=1;whiteSpace=wrap;html=1;" vertex="1" parent="1">
          <mxGeometry x="194" y="283.5" width="57" height="40" as="geometry" />
        </mxCell>
        <mxCell id="i5N2LThPPHAmajQiNkWL-37" style="edgeStyle=orthogonalEdgeStyle;curved=1;rounded=0;orthogonalLoop=1;jettySize=auto;html=1;entryX=0;entryY=0.5;entryDx=0;entryDy=0;entryPerimeter=0;" edge="1" parent="1" source="i5N2LThPPHAmajQiNkWL-23" target="i5N2LThPPHAmajQiNkWL-14">
          <mxGeometry relative="1" as="geometry" />
        </mxCell>
        <mxCell id="i5N2LThPPHAmajQiNkWL-23" value="Filebeat" style="rounded=1;whiteSpace=wrap;html=1;" vertex="1" parent="1">
          <mxGeometry x="270" y="283.5" width="57" height="40" as="geometry" />
        </mxCell>
        <mxCell id="i5N2LThPPHAmajQiNkWL-24" value="Pod" style="text;html=1;strokeColor=none;fillColor=none;align=center;verticalAlign=middle;whiteSpace=wrap;rounded=0;" vertex="1" parent="1">
          <mxGeometry x="231" y="246" width="60" height="30" as="geometry" />
        </mxCell>
        <mxCell id="i5N2LThPPHAmajQiNkWL-26" value="" style="rounded=1;whiteSpace=wrap;html=1;" vertex="1" parent="1">
          <mxGeometry x="162.5" y="394" width="191" height="251" as="geometry" />
        </mxCell>
        <mxCell id="i5N2LThPPHAmajQiNkWL-27" value="Node 2" style="text;html=1;strokeColor=none;fillColor=none;align=center;verticalAlign=middle;whiteSpace=wrap;rounded=0;" vertex="1" parent="1">
          <mxGeometry x="174.5" y="407" width="60" height="30" as="geometry" />
        </mxCell>
        <mxCell id="i5N2LThPPHAmajQiNkWL-28" value="" style="rounded=1;whiteSpace=wrap;html=1;" vertex="1" parent="1">
          <mxGeometry x="170.5" y="464" width="168" height="69" as="geometry" />
        </mxCell>
        <mxCell id="i5N2LThPPHAmajQiNkWL-29" value="Envoy" style="rounded=1;whiteSpace=wrap;html=1;" vertex="1" parent="1">
          <mxGeometry x="190.5" y="478.5" width="57" height="40" as="geometry" />
        </mxCell>
        <mxCell id="i5N2LThPPHAmajQiNkWL-38" style="edgeStyle=orthogonalEdgeStyle;rounded=0;orthogonalLoop=1;jettySize=auto;html=1;curved=1;entryX=0;entryY=0.5;entryDx=0;entryDy=0;entryPerimeter=0;" edge="1" parent="1" source="i5N2LThPPHAmajQiNkWL-30" target="i5N2LThPPHAmajQiNkWL-14">
          <mxGeometry relative="1" as="geometry" />
        </mxCell>
        <mxCell id="i5N2LThPPHAmajQiNkWL-30" value="Filebeat" style="rounded=1;whiteSpace=wrap;html=1;" vertex="1" parent="1">
          <mxGeometry x="266.5" y="478.5" width="57" height="40" as="geometry" />
        </mxCell>
        <mxCell id="i5N2LThPPHAmajQiNkWL-31" value="Pod" style="text;html=1;strokeColor=none;fillColor=none;align=center;verticalAlign=middle;whiteSpace=wrap;rounded=0;" vertex="1" parent="1">
          <mxGeometry x="229.5" y="437" width="60" height="30" as="geometry" />
        </mxCell>
        <mxCell id="i5N2LThPPHAmajQiNkWL-32" value="" style="rounded=1;whiteSpace=wrap;html=1;" vertex="1" parent="1">
          <mxGeometry x="170.5" y="556" width="168" height="69" as="geometry" />
        </mxCell>
        <mxCell id="i5N2LThPPHAmajQiNkWL-33" value="Envoy" style="rounded=1;whiteSpace=wrap;html=1;" vertex="1" parent="1">
          <mxGeometry x="190.5" y="570.5" width="57" height="40" as="geometry" />
        </mxCell>
        <mxCell id="i5N2LThPPHAmajQiNkWL-39" style="edgeStyle=orthogonalEdgeStyle;curved=1;rounded=0;orthogonalLoop=1;jettySize=auto;html=1;entryX=0;entryY=0.5;entryDx=0;entryDy=0;entryPerimeter=0;" edge="1" parent="1" source="i5N2LThPPHAmajQiNkWL-34" target="i5N2LThPPHAmajQiNkWL-14">
          <mxGeometry relative="1" as="geometry" />
        </mxCell>
        <mxCell id="i5N2LThPPHAmajQiNkWL-34" value="Filebeat" style="rounded=1;whiteSpace=wrap;html=1;" vertex="1" parent="1">
          <mxGeometry x="266.5" y="570.5" width="57" height="40" as="geometry" />
        </mxCell>
        <mxCell id="i5N2LThPPHAmajQiNkWL-35" value="Pod" style="text;html=1;strokeColor=none;fillColor=none;align=center;verticalAlign=middle;whiteSpace=wrap;rounded=0;" vertex="1" parent="1">
          <mxGeometry x="227.5" y="533" width="60" height="30" as="geometry" />
        </mxCell>
      </root>
    </mxGraphModel>
  </diagram>
</mxfile>
